<?xml version="1.0" standalone="no"?>
<!DOCTYPE svg PUBLIC "-//W3C//DTD SVG 20010904//EN"
 "http://www.w3.org/TR/2001/REC-SVG-20010904/DTD/svg10.dtd">
<svg version="1.0" xmlns="http://www.w3.org/2000/svg"
 width="472.000000pt" height="472.000000pt" viewBox="0 0 472.000000 472.000000"
 preserveAspectRatio="xMidYMid meet">
<metadata>
Created by potrace 1.14, written by Peter Selinger 2001-2017
</metadata>
<g transform="translate(0.000000,472.000000) scale(0.100000,-0.100000)"
fill="#000000" stroke="none">
<path d="M1165 3949 c-10 -30 10 -47 35 -31 11 6 38 12 60 12 33 0 40 3 40 20
0 18 -7 20 -64 20 -57 0 -65 -3 -71 -21z"/>
<path d="M1370 3950 c0 -18 7 -20 85 -20 78 0 85 2 85 20 0 18 -7 20 -85 20
-78 0 -85 -2 -85 -20z"/>
<path d="M1610 3950 c0 -18 7 -20 85 -20 78 0 85 2 85 20 0 18 -7 20 -85 20
-78 0 -85 -2 -85 -20z"/>
<path d="M1850 3950 c0 -18 7 -20 85 -20 78 0 85 2 85 20 0 18 -7 20 -85 20
-78 0 -85 -2 -85 -20z"/>
<path d="M2090 3950 c0 -18 7 -20 85 -20 78 0 85 2 85 20 0 18 -7 20 -85 20
-78 0 -85 -2 -85 -20z"/>
<path d="M2330 3950 c0 -18 7 -20 85 -20 78 0 85 2 85 20 0 18 -7 20 -85 20
-78 0 -85 -2 -85 -20z"/>
<path d="M2570 3950 c0 -18 7 -20 85 -20 78 0 85 2 85 20 0 18 -7 20 -85 20
-78 0 -85 -2 -85 -20z"/>
<path d="M2810 3950 c0 -18 7 -20 74 -20 54 0 75 4 79 14 9 22 -2 26 -80 26
-66 0 -73 -2 -73 -20z"/>
<path d="M2923 3883 c-64 -3 -73 -6 -73 -23 0 -17 9 -19 67 -22 42 -2 68 -8
71 -15 2 -9 -11 -13 -47 -13 -44 0 -51 -3 -51 -20 0 -18 7 -20 65 -20 60 0 66
-2 77 -25 13 -28 16 -29 40 -12 15 12 13 19 -24 85 -22 40 -43 71 -46 70 -4
-1 -40 -4 -79 -5z"/>
<path d="M1441 3859 c-11 -18 -11 -23 1 -30 18 -12 35 -11 43 1 3 6 26 10 51
10 37 0 44 3 44 20 0 18 -7 20 -63 20 -53 0 -64 -3 -76 -21z"/>
<path d="M1650 3860 c0 -18 7 -20 85 -20 78 0 85 2 85 20 0 18 -7 20 -85 20
-78 0 -85 -2 -85 -20z"/>
<path d="M1890 3860 c0 -18 7 -20 85 -20 78 0 85 2 85 20 0 18 -7 20 -85 20
-78 0 -85 -2 -85 -20z"/>
<path d="M2130 3860 c0 -18 7 -20 85 -20 78 0 85 2 85 20 0 18 -7 20 -85 20
-78 0 -85 -2 -85 -20z"/>
<path d="M2370 3860 c0 -18 7 -20 85 -20 78 0 85 2 85 20 0 18 -7 20 -85 20
-78 0 -85 -2 -85 -20z"/>
<path d="M2610 3860 c0 -18 7 -20 85 -20 78 0 85 2 85 20 0 18 -7 20 -85 20
-78 0 -85 -2 -85 -20z"/>
<path d="M3090 3860 c0 -18 7 -20 74 -20 54 0 75 4 79 14 9 22 -2 26 -80 26
-66 0 -73 -2 -73 -20z"/>
<path d="M1071 3790 c-39 -68 -39 -70 -20 -81 25 -13 22 -16 69 64 27 47 35
68 27 76 -21 21 -36 10 -76 -59z"/>
<path d="M1721 3789 c-11 -18 -11 -23 1 -30 18 -12 35 -11 43 1 3 6 26 10 51
10 37 0 44 3 44 20 0 18 -7 20 -63 20 -53 0 -64 -3 -76 -21z"/>
<path d="M1930 3790 c0 -18 7 -20 85 -20 78 0 85 2 85 20 0 18 -7 20 -85 20
-78 0 -85 -2 -85 -20z"/>
<path d="M2170 3790 c0 -18 7 -20 85 -20 78 0 85 2 85 20 0 18 -7 20 -85 20
-78 0 -85 -2 -85 -20z"/>
<path d="M2410 3790 c0 -18 7 -20 85 -20 78 0 85 2 85 20 0 18 -7 20 -85 20
-78 0 -85 -2 -85 -20z"/>
<path d="M2650 3790 c0 -18 7 -20 85 -20 78 0 85 2 85 20 0 18 -7 20 -85 20
-78 0 -85 -2 -85 -20z"/>
<path d="M3130 3790 c0 -18 7 -20 58 -20 l58 0 38 -67 c21 -38 40 -69 41 -71
2 -2 12 2 24 9 20 13 20 14 -14 75 -19 34 -35 69 -35 78 0 13 -14 16 -85 16
-78 0 -85 -2 -85 -20z"/>
<path d="M3370 3790 c0 -18 7 -20 74 -20 54 0 75 4 79 14 9 22 -2 26 -80 26
-66 0 -73 -2 -73 -20z"/>
<path d="M1352 3701 c-39 -68 -41 -91 -6 -91 20 0 94 136 81 149 -21 21 -36
10 -75 -58z"/>
<path d="M3542 3718 c-7 -7 -12 -15 -12 -19 0 -6 65 -125 76 -138 1 -1 12 3
23 11 20 14 19 16 -21 86 -23 40 -45 72 -48 72 -3 0 -11 -5 -18 -12z"/>
<path d="M1631 3630 c-37 -66 -39 -70 -21 -80 10 -5 21 -10 23 -10 3 0 23 31
45 69 29 50 37 72 29 80 -21 21 -36 10 -76 -59z"/>
<path d="M3098 3668 c-15 -12 -13 -20 24 -80 40 -67 51 -76 76 -59 10 6 3 25
-28 79 -23 40 -45 72 -49 72 -4 0 -15 -6 -23 -12z"/>
<path d="M952 3583 c-37 -61 -39 -69 -24 -80 8 -7 19 -13 23 -13 4 0 26 33 48
72 28 52 36 75 28 80 -24 15 -36 6 -75 -59z"/>
<path d="M3378 3578 c-15 -12 -13 -20 24 -80 40 -67 51 -76 76 -59 10 6 3 25
-28 79 -23 40 -45 72 -49 72 -4 0 -15 -6 -23 -12z"/>
<path d="M1233 3496 c-37 -64 -40 -72 -25 -84 9 -7 20 -11 25 -9 4 1 26 34 48
73 l39 71 -23 10 c-21 10 -26 5 -64 -61z"/>
<path d="M3660 3510 c-13 -8 -10 -19 20 -76 37 -70 49 -81 74 -67 12 7 8 20
-25 81 -22 39 -44 72 -47 72 -4 0 -14 -5 -22 -10z"/>
<path d="M1513 3426 c-37 -64 -40 -72 -25 -84 9 -7 20 -11 25 -9 4 1 26 34 48
73 l39 71 -23 10 c-21 10 -26 5 -64 -61z"/>
<path d="M3218 3460 c-15 -9 -13 -17 23 -80 40 -69 55 -80 76 -59 8 8 0 30
-29 80 -42 73 -43 74 -70 59z"/>
<path d="M837 3382 c-37 -65 -40 -89 -11 -99 5 -2 28 29 51 69 38 66 40 73 25
85 -10 7 -19 12 -22 13 -3 0 -22 -31 -43 -68z"/>
<path d="M3498 3370 c-15 -9 -13 -17 23 -80 40 -69 55 -80 76 -59 8 8 0 30
-29 80 -42 73 -43 74 -70 59z"/>
<path d="M1113 3287 c-39 -65 -41 -73 -26 -84 9 -7 20 -13 23 -13 3 0 25 32
48 72 38 66 40 73 24 84 -9 8 -19 13 -22 14 -3 0 -24 -33 -47 -73z"/>
<path d="M3780 3300 c-13 -8 -10 -19 20 -76 37 -71 52 -83 74 -65 12 10 8 23
-26 82 -42 73 -44 74 -68 59z"/>
<path d="M1394 3217 c-40 -70 -41 -72 -22 -85 23 -17 17 -22 66 62 37 64 39
71 24 83 -9 7 -19 12 -22 13 -3 0 -24 -33 -46 -73z"/>
<path d="M3334 3246 c-6 -15 62 -146 75 -146 4 0 15 6 24 13 14 11 12 19 -24
80 -39 65 -64 82 -75 53z"/>
<path d="M717 3175 c-42 -73 -44 -80 -20 -94 15 -8 24 2 60 62 39 66 41 73 26
85 -9 6 -20 12 -23 12 -3 0 -22 -29 -43 -65z"/>
<path d="M3613 3162 c-8 -5 0 -28 28 -80 22 -39 44 -72 48 -72 4 0 15 6 24 13
14 11 12 19 -24 80 -39 65 -51 75 -76 59z"/>
<path d="M993 3078 c-42 -73 -42 -73 -20 -85 24 -13 24 -14 76 79 31 55 31 57
12 67 -11 6 -21 11 -23 11 -2 0 -23 -33 -45 -72z"/>
<path d="M3894 3086 c-6 -15 62 -146 75 -146 4 0 15 6 23 13 15 11 13 19 -24
80 -39 65 -63 82 -74 53z"/>
<path d="M1277 3015 c-42 -73 -44 -80 -20 -94 15 -8 24 2 60 62 39 66 41 73
26 85 -9 6 -20 12 -23 12 -3 0 -22 -29 -43 -65z"/>
<path d="M3463 3047 c-22 -12 -22 -12 20 -85 22 -39 44 -72 47 -72 3 0 13 6
22 13 15 11 12 19 -25 84 -39 66 -44 70 -64 60z"/>
<path d="M596 2964 c-20 -36 -35 -72 -32 -80 11 -29 36 -12 75 54 36 60 38 68
24 80 -9 6 -20 12 -23 12 -3 0 -23 -30 -44 -66z"/>
<path d="M3743 2957 c-22 -12 -22 -12 20 -85 22 -39 44 -72 47 -72 3 0 13 6
22 13 15 11 12 19 -25 84 -39 66 -44 70 -64 60z"/>
<path d="M876 2875 c-21 -36 -35 -72 -32 -80 11 -30 36 -13 75 53 36 60 38 68
24 80 -9 6 -20 12 -23 12 -3 0 -23 -29 -44 -65z"/>
<path d="M4023 2887 c-22 -12 -22 -12 20 -85 22 -39 44 -72 47 -72 3 0 13 6
22 13 15 11 12 19 -25 84 -39 66 -44 70 -64 60z"/>
<path d="M1156 2804 c-20 -36 -35 -72 -32 -80 11 -29 36 -12 75 54 36 60 38
68 24 80 -9 6 -20 12 -23 12 -3 0 -23 -30 -44 -66z"/>
<path d="M3578 2837 c-15 -12 -13 -19 24 -83 49 -84 43 -79 67 -62 19 13 18
15 -22 86 -23 40 -44 72 -47 72 -3 0 -13 -6 -22 -13z"/>
<path d="M476 2756 c-20 -35 -36 -69 -36 -74 0 -8 22 -22 35 -22 2 0 21 31 43
69 29 50 37 72 29 80 -21 21 -36 10 -71 -53z"/>
<path d="M3858 2747 c-15 -12 -13 -19 24 -83 49 -84 43 -79 67 -62 19 13 18
15 -22 86 -23 40 -44 72 -47 72 -3 0 -13 -6 -22 -13z"/>
<path d="M756 2666 c-45 -81 -46 -86 -6 -90 6 -1 28 28 49 64 29 47 36 68 29
77 -20 24 -37 13 -72 -51z"/>
<path d="M4138 2676 c-16 -11 -14 -18 24 -82 23 -38 42 -71 44 -73 1 -1 12 3
23 11 19 13 18 15 -22 86 -23 40 -44 72 -47 72 -3 0 -13 -6 -22 -14z"/>
<path d="M1036 2596 c-20 -35 -36 -69 -36 -74 0 -8 22 -22 35 -22 2 0 21 31
43 69 29 50 37 72 29 80 -21 21 -36 10 -71 -53z"/>
<path d="M3698 2628 c-15 -12 -12 -20 25 -85 39 -66 44 -70 64 -60 22 12 22
12 -20 85 -22 39 -44 72 -47 72 -3 0 -13 -6 -22 -12z"/>
<path d="M356 2546 c-45 -81 -46 -86 -6 -90 5 -1 28 30 50 68 31 53 38 71 28
78 -26 16 -37 7 -72 -56z"/>
<path d="M3978 2538 c-15 -12 -12 -20 25 -85 39 -66 44 -70 64 -60 22 12 22
12 -20 85 -22 39 -44 72 -47 72 -3 0 -13 -6 -22 -12z"/>
<path d="M635 2457 c-19 -35 -35 -69 -35 -74 0 -9 22 -23 35 -23 2 0 22 32 45
72 31 54 38 73 28 79 -26 17 -38 8 -73 -54z"/>
<path d="M4258 2468 c-15 -12 -12 -20 25 -85 36 -60 45 -70 60 -62 9 6 17 14
17 20 0 13 -73 139 -80 139 -3 0 -13 -6 -22 -12z"/>
<path d="M915 2387 c-19 -35 -35 -69 -35 -74 0 -9 22 -23 35 -23 2 0 22 32 45
72 31 54 38 73 28 79 -26 17 -38 8 -73 -54z"/>
<path d="M3759 2379 c-33 -57 -38 -73 -28 -80 8 -5 19 -9 24 -9 11 0 85 119
85 137 0 9 -22 23 -35 23 -2 0 -23 -32 -46 -71z"/>
<path d="M327 2419 c-9 -6 -17 -14 -17 -19 0 -6 56 -109 76 -138 1 -2 12 2 24
8 21 11 21 11 -11 68 -51 89 -52 91 -72 81z"/>
<path d="M4039 2289 c-33 -57 -38 -73 -28 -80 8 -5 19 -9 24 -9 11 0 85 119
85 137 0 9 -22 23 -35 23 -2 0 -23 -32 -46 -71z"/>
<path d="M608 2329 c-10 -6 -18 -14 -18 -19 0 -7 64 -123 76 -138 1 -2 12 2
24 8 21 11 21 12 -16 78 -46 83 -45 83 -66 71z"/>
<path d="M4320 2219 c-34 -57 -39 -73 -29 -80 8 -5 19 -9 24 -9 11 0 85 121
85 138 0 8 -22 22 -35 22 -1 0 -22 -32 -45 -71z"/>
<path d="M887 2259 c-9 -6 -17 -14 -17 -19 0 -7 64 -123 76 -138 1 -2 12 2 24
8 l21 11 -32 57 c-49 88 -52 92 -72 81z"/>
<path d="M3641 2173 c-28 -49 -36 -71 -29 -80 6 -7 16 -13 22 -13 12 0 86 120
86 138 0 8 -22 22 -35 22 -2 0 -22 -30 -44 -67z"/>
<path d="M440 2205 c-9 -11 -4 -28 27 -84 21 -39 40 -71 43 -71 3 1 13 7 23
14 16 12 14 18 -24 85 -23 39 -45 71 -49 71 -4 0 -13 -7 -20 -15z"/>
<path d="M3921 2083 c-30 -50 -37 -70 -29 -80 6 -7 16 -13 22 -13 16 0 89 129
82 146 -11 29 -36 12 -75 -53z"/>
<path d="M720 2115 c-9 -11 -4 -28 27 -84 21 -39 41 -71 44 -71 3 0 13 6 23
13 16 12 14 18 -25 85 -23 39 -45 72 -49 72 -4 0 -13 -7 -20 -15z"/>
<path d="M4201 2013 c-28 -49 -36 -71 -29 -80 6 -7 16 -13 22 -13 12 0 86 120
86 138 0 8 -22 22 -35 22 -2 0 -22 -30 -44 -67z"/>
<path d="M1000 2045 c-10 -12 -5 -27 25 -82 21 -38 39 -70 41 -72 1 -1 12 3
23 11 19 13 19 15 -21 86 -22 40 -43 72 -48 72 -4 0 -13 -7 -20 -15z"/>
<path d="M3522 1967 c-37 -65 -40 -73 -25 -84 9 -7 19 -13 22 -13 7 0 81 129
81 141 0 4 -8 13 -18 18 -16 8 -24 0 -60 -62z"/>
<path d="M560 2000 c-13 -8 -10 -20 22 -77 36 -68 51 -80 76 -65 10 7 3 26
-28 80 -23 40 -45 72 -48 72 -4 0 -14 -5 -22 -10z"/>
<path d="M3802 1877 c-37 -65 -40 -73 -25 -84 9 -7 19 -13 22 -13 8 0 81 126
81 139 0 6 -8 15 -18 20 -16 8 -24 0 -60 -62z"/>
<path d="M840 1910 c-13 -8 -10 -20 21 -77 36 -68 52 -81 77 -65 10 7 3 26
-28 80 -23 40 -45 72 -48 72 -4 0 -14 -5 -22 -10z"/>
<path d="M4082 1807 c-37 -65 -40 -73 -25 -84 9 -7 19 -13 22 -13 7 0 81 129
81 141 0 4 -8 13 -18 18 -16 8 -24 0 -60 -62z"/>
<path d="M1120 1840 c-13 -8 -10 -20 22 -77 36 -68 51 -80 76 -65 10 7 3 26
-28 80 -23 40 -45 72 -48 72 -4 0 -14 -5 -22 -10z"/>
<path d="M3402 1757 c-38 -66 -41 -73 -25 -84 9 -7 19 -13 22 -13 7 0 81 129
81 141 0 4 -8 13 -18 18 -16 9 -24 0 -60 -62z"/>
<path d="M680 1790 c-13 -8 -10 -20 22 -77 37 -68 51 -80 77 -64 10 7 5 23
-28 80 -44 74 -47 77 -71 61z"/>
<path d="M3681 1667 c-37 -65 -39 -73 -24 -84 9 -7 19 -13 22 -13 7 0 81 129
81 141 0 4 -9 13 -19 19 -17 9 -24 2 -60 -63z"/>
<path d="M960 1700 c-13 -8 -10 -20 22 -77 37 -68 51 -80 77 -64 10 7 5 23
-28 80 -44 74 -47 77 -71 61z"/>
<path d="M3962 1597 c-38 -66 -41 -73 -25 -84 9 -7 19 -13 22 -13 7 0 81 129
81 141 0 4 -8 13 -18 18 -16 9 -24 0 -60 -62z"/>
<path d="M1240 1630 c-13 -8 -10 -20 22 -77 37 -68 51 -80 77 -64 11 7 5 23
-29 80 -23 39 -45 71 -49 71 -3 0 -13 -5 -21 -10z"/>
<path d="M3282 1548 c-40 -71 -40 -73 -21 -86 11 -8 22 -12 23 -11 2 2 20 34
41 72 30 55 35 70 25 82 -7 8 -16 15 -20 15 -5 0 -26 -32 -48 -72z"/>
<path d="M794 1576 c-5 -14 64 -146 76 -146 3 0 14 6 23 13 14 11 12 19 -24
80 -39 65 -64 82 -75 53z"/>
<path d="M3561 1459 c-39 -67 -40 -72 -24 -85 10 -7 20 -13 23 -13 8 0 80 130
80 144 0 11 -20 25 -35 25 -2 0 -22 -32 -44 -71z"/>
<path d="M1074 1485 c-6 -14 63 -145 76 -145 3 0 14 6 23 13 15 11 13 18 -24
80 -39 65 -64 82 -75 52z"/>
<path d="M3841 1389 c-38 -67 -40 -73 -24 -85 10 -7 20 -13 23 -14 3 0 22 32
43 71 31 56 36 73 27 84 -7 8 -16 15 -20 15 -4 0 -26 -32 -49 -71z"/>
<path d="M1354 1416 c-5 -14 64 -146 76 -146 3 0 14 6 23 13 14 11 12 19 -24
80 -39 65 -64 82 -75 53z"/>
<path d="M3160 1338 c-31 -54 -38 -73 -28 -80 25 -15 40 -3 76 65 32 57 35 69
22 77 -8 5 -18 10 -22 10 -3 0 -25 -32 -48 -72z"/>
<path d="M924 1376 c-18 -14 -18 -16 11 -70 46 -86 50 -89 75 -76 21 11 21 11
-11 68 -54 95 -53 94 -75 78z"/>
<path d="M3440 1248 c-31 -54 -38 -73 -28 -80 25 -16 41 -3 77 65 31 57 34 69
21 77 -8 5 -18 10 -22 10 -3 0 -25 -32 -48 -72z"/>
<path d="M1204 1286 c-18 -14 -18 -16 11 -70 46 -86 50 -89 75 -76 21 11 21
11 -11 68 -54 95 -53 94 -75 78z"/>
<path d="M3720 1178 c-31 -54 -38 -73 -28 -80 25 -15 40 -3 76 65 32 57 35 69
22 77 -8 5 -18 10 -22 10 -3 0 -25 -32 -48 -72z"/>
<path d="M1487 1219 c-9 -6 -17 -15 -17 -21 0 -8 58 -113 76 -136 1 -2 12 2
24 8 21 11 21 11 -11 68 -51 89 -52 91 -72 81z"/>
<path d="M3042 1133 c-34 -57 -38 -70 -27 -82 21 -22 37 -8 75 63 30 57 33 68
20 76 -24 15 -25 14 -68 -57z"/>
<path d="M1040 1165 c-6 -8 -10 -18 -8 -22 12 -29 74 -133 78 -133 4 0 14 6
23 13 16 11 13 18 -25 85 -23 39 -45 72 -49 72 -3 0 -12 -7 -19 -15z"/>
<path d="M3321 1043 c-39 -67 -40 -93 -6 -93 18 0 88 127 81 146 -11 30 -36
12 -75 -53z"/>
<path d="M1319 1074 c-13 -16 -12 -19 43 -111 17 -29 17 -33 4 -33 -9 0 -16
-8 -16 -20 0 -18 7 -20 85 -20 78 0 85 2 85 20 0 17 -7 20 -48 20 -33 0 -49 4
-49 13 0 17 -73 147 -83 147 -4 0 -13 -7 -21 -16z"/>
<path d="M3602 973 c-34 -57 -38 -70 -27 -82 21 -22 37 -8 75 63 30 57 33 68
20 76 -24 15 -25 14 -68 -57z"/>
<path d="M1599 1004 c-10 -13 -10 -20 5 -45 15 -25 15 -29 2 -29 -9 0 -16 -9
-16 -20 0 -16 7 -20 30 -20 17 0 30 -3 30 -7 0 -5 4 -14 9 -22 7 -10 13 -11
30 -2 12 7 19 16 16 22 -4 5 8 9 24 9 24 0 31 4 31 20 0 17 -7 20 -40 20 -37
0 -43 4 -68 45 -30 50 -34 52 -53 29z"/>
<path d="M2943 960 c-17 -29 -20 -30 -85 -30 -61 0 -68 -2 -68 -20 0 -18 7
-20 84 -20 l84 0 22 35 c23 37 21 65 -4 65 -8 0 -23 -13 -33 -30z"/>
<path d="M1161 961 c-12 -8 -12 -14 -1 -40 12 -29 16 -31 66 -31 47 0 54 2 54
20 0 16 -7 20 -35 20 -24 0 -37 6 -45 20 -12 22 -18 24 -39 11z"/>
<path d="M1830 910 c0 -18 7 -20 85 -20 78 0 85 2 85 20 0 18 -7 20 -85 20
-78 0 -85 -2 -85 -20z"/>
<path d="M2070 910 c0 -18 7 -20 85 -20 78 0 85 2 85 20 0 18 -7 20 -85 20
-78 0 -85 -2 -85 -20z"/>
<path d="M2310 910 c0 -18 7 -20 85 -20 78 0 85 2 85 20 0 18 -7 20 -85 20
-78 0 -85 -2 -85 -20z"/>
<path d="M2550 910 c0 -18 7 -20 85 -20 78 0 85 2 85 20 0 18 -7 20 -85 20
-78 0 -85 -2 -85 -20z"/>
<path d="M3225 874 c-18 -34 -19 -34 -87 -34 -61 0 -68 -2 -68 -20 0 -18 7
-20 85 -20 l85 0 20 33 c25 40 25 54 2 66 -15 8 -21 4 -37 -25z"/>
<path d="M1443 873 c-17 -6 -16 -33 1 -55 10 -13 27 -18 65 -18 44 0 51 3 51
20 0 16 -7 20 -35 20 -24 0 -37 6 -45 20 -11 20 -16 22 -37 13z"/>
<path d="M1630 820 c0 -17 7 -20 40 -20 31 0 40 -4 40 -17 1 -37 25 -53 79
-53 44 0 51 3 51 19 0 16 -8 20 -37 23 -39 3 -60 28 -24 28 14 0 21 6 21 20 0
18 -7 20 -85 20 -78 0 -85 -2 -85 -20z"/>
<path d="M1870 820 c0 -18 7 -20 85 -20 78 0 85 2 85 20 0 18 -7 20 -85 20
-78 0 -85 -2 -85 -20z"/>
<path d="M2110 820 c0 -18 7 -20 85 -20 78 0 85 2 85 20 0 18 -7 20 -85 20
-78 0 -85 -2 -85 -20z"/>
<path d="M2350 820 c0 -18 7 -20 85 -20 78 0 85 2 85 20 0 18 -7 20 -85 20
-78 0 -85 -2 -85 -20z"/>
<path d="M2590 820 c0 -18 7 -20 85 -20 78 0 85 2 85 20 0 18 -7 20 -85 20
-78 0 -85 -2 -85 -20z"/>
<path d="M2830 820 c0 -18 7 -20 85 -20 78 0 85 2 85 20 0 18 -7 20 -85 20
-78 0 -85 -2 -85 -20z"/>
<path d="M3503 800 c-17 -29 -20 -30 -85 -30 -61 0 -68 -2 -68 -20 0 -18 7
-20 84 -20 l84 0 22 35 c23 37 21 65 -4 65 -8 0 -23 -13 -33 -30z"/>
<path d="M1910 750 c0 -18 7 -20 85 -20 78 0 85 2 85 20 0 18 -7 20 -85 20
-78 0 -85 -2 -85 -20z"/>
<path d="M2150 750 c0 -18 7 -20 85 -20 78 0 85 2 85 20 0 18 -7 20 -85 20
-78 0 -85 -2 -85 -20z"/>
<path d="M2390 750 c0 -18 7 -20 85 -20 78 0 85 2 85 20 0 18 -7 20 -85 20
-78 0 -85 -2 -85 -20z"/>
<path d="M2630 750 c0 -18 7 -20 85 -20 78 0 85 2 85 20 0 18 -7 20 -85 20
-78 0 -85 -2 -85 -20z"/>
<path d="M2870 750 c0 -18 7 -20 85 -20 78 0 85 2 85 20 0 18 -7 20 -85 20
-78 0 -85 -2 -85 -20z"/>
<path d="M3110 750 c0 -18 7 -20 85 -20 78 0 85 2 85 20 0 18 -7 20 -85 20
-78 0 -85 -2 -85 -20z"/>
</g>
</svg>
